<?xml version="1.0" encoding="UTF-8" standalone="no"?>
<!DOCTYPE svg PUBLIC "-//W3C//DTD SVG 1.1//EN"
 "http://www.w3.org/Graphics/SVG/1.1/DTD/svg11.dtd">
<!-- Generated by graphviz version 2.40.1 (20161225.0304)
 -->
<!-- Title: G Pages: 1 -->
<svg width="507pt" height="155pt"
 viewBox="0.00 0.00 507.04 154.80" xmlns="http://www.w3.org/2000/svg" xmlns:xlink="http://www.w3.org/1999/xlink">
<g id="graph0" class="graph" transform="scale(1 1) rotate(0) translate(4 150.8)">
<title>G</title>
<polygon fill="#ffffff" stroke="transparent" points="-4,4 -4,-150.8 503.043,-150.8 503.043,4 -4,4"/>
<!-- index.js -->
<g id="node1" class="node">
<title>index.js</title>
<path fill="#e5e5e5" stroke="#000000" d="M51.7101,-85.7008C51.7101,-85.7008 8.2303,-85.7008 8.2303,-85.7008 4.13,-85.7008 .0298,-81.6005 .0298,-77.5003 .0298,-77.5003 .0298,-69.2997 .0298,-69.2997 .0298,-65.1995 4.13,-61.0992 8.2303,-61.0992 8.2303,-61.0992 51.7101,-61.0992 51.7101,-61.0992 55.8104,-61.0992 59.9106,-65.1995 59.9106,-69.2997 59.9106,-69.2997 59.9106,-77.5003 59.9106,-77.5003 59.9106,-81.6005 55.8104,-85.7008 51.7101,-85.7008"/>
<text text-anchor="middle" x="29.9702" y="-69.2" font-family="Times,serif" font-size="14.00" fill="#000000">index.js</text>
</g>
<!-- src/exception/status&#45;error.js -->
<g id="node2" class="node">
<title>src/exception/status&#45;error.js</title>
<path fill="#e5e5e5" stroke="#000000" d="M271.333,-146.7008C271.333,-146.7008 116.5276,-146.7008 116.5276,-146.7008 112.4273,-146.7008 108.3271,-142.6005 108.3271,-138.5003 108.3271,-138.5003 108.3271,-130.2997 108.3271,-130.2997 108.3271,-126.1995 112.4273,-122.0992 116.5276,-122.0992 116.5276,-122.0992 271.333,-122.0992 271.333,-122.0992 275.4333,-122.0992 279.5335,-126.1995 279.5335,-130.2997 279.5335,-130.2997 279.5335,-138.5003 279.5335,-138.5003 279.5335,-142.6005 275.4333,-146.7008 271.333,-146.7008"/>
<text text-anchor="middle" x="193.9303" y="-130.2" font-family="Times,serif" font-size="14.00" fill="#000000">src/exception/status&#45;error.js</text>
</g>
<!-- index.js&#45;&gt;src/exception/status&#45;error.js -->
<g id="edge1" class="edge">
<title>index.js&#45;&gt;src/exception/status&#45;error.js</title>
<path fill="none" stroke="#000000" d="M55.3556,-85.8095C67.4928,-91.5185 82.3153,-98.1686 95.9404,-103.4 110.5613,-109.0137 126.6755,-114.4222 141.5403,-119.1063"/>
<polygon fill="#000000" stroke="#000000" points="140.5118,-122.4517 151.0999,-122.0746 142.5876,-115.7665 140.5118,-122.4517"/>
</g>
<!-- src/handler/controller&#45;handler.js -->
<g id="node3" class="node">
<title>src/handler/controller&#45;handler.js</title>
<path fill="#e5e5e5" stroke="#000000" d="M283.7096,-85.7008C283.7096,-85.7008 104.151,-85.7008 104.151,-85.7008 100.0508,-85.7008 95.9505,-81.6005 95.9505,-77.5003 95.9505,-77.5003 95.9505,-69.2997 95.9505,-69.2997 95.9505,-65.1995 100.0508,-61.0992 104.151,-61.0992 104.151,-61.0992 283.7096,-61.0992 283.7096,-61.0992 287.8098,-61.0992 291.9101,-65.1995 291.9101,-69.2997 291.9101,-69.2997 291.9101,-77.5003 291.9101,-77.5003 291.9101,-81.6005 287.8098,-85.7008 283.7096,-85.7008"/>
<text text-anchor="middle" x="193.9303" y="-69.2" font-family="Times,serif" font-size="14.00" fill="#000000">src/handler/controller&#45;handler.js</text>
</g>
<!-- index.js&#45;&gt;src/handler/controller&#45;handler.js -->
<g id="edge2" class="edge">
<title>index.js&#45;&gt;src/handler/controller&#45;handler.js</title>
<path fill="none" stroke="#000000" d="M60.043,-73.4C67.7148,-73.4 76.4169,-73.4 85.6138,-73.4"/>
<polygon fill="#000000" stroke="#000000" points="85.7623,-76.9001 95.7622,-73.4 85.7622,-69.9001 85.7623,-76.9001"/>
</g>
<!-- src/handler/method&#45;handler.js -->
<g id="node4" class="node">
<title>src/handler/method&#45;handler.js</title>
<path fill="#e5e5e5" stroke="#000000" d="M277.2837,-24.7008C277.2837,-24.7008 110.5769,-24.7008 110.5769,-24.7008 106.4766,-24.7008 102.3764,-20.6005 102.3764,-16.5003 102.3764,-16.5003 102.3764,-8.2997 102.3764,-8.2997 102.3764,-4.1995 106.4766,-.0992 110.5769,-.0992 110.5769,-.0992 277.2837,-.0992 277.2837,-.0992 281.384,-.0992 285.4842,-4.1995 285.4842,-8.2997 285.4842,-8.2997 285.4842,-16.5003 285.4842,-16.5003 285.4842,-20.6005 281.384,-24.7008 277.2837,-24.7008"/>
<text text-anchor="middle" x="193.9303" y="-8.2" font-family="Times,serif" font-size="14.00" fill="#000000">src/handler/method&#45;handler.js</text>
</g>
<!-- index.js&#45;&gt;src/handler/method&#45;handler.js -->
<g id="edge3" class="edge">
<title>index.js&#45;&gt;src/handler/method&#45;handler.js</title>
<path fill="none" stroke="#000000" d="M55.3556,-60.9905C67.4928,-55.2815 82.3153,-48.6314 95.9404,-43.4 110.5613,-37.7863 126.6755,-32.3778 141.5403,-27.6937"/>
<polygon fill="#000000" stroke="#000000" points="142.5876,-31.0335 151.0999,-24.7254 140.5118,-24.3483 142.5876,-31.0335"/>
</g>
<!-- src/constants.js -->
<g id="node5" class="node">
<title>src/constants.js</title>
<path fill="#e5e5e5" stroke="#000000" d="M455.9264,-85.7008C455.9264,-85.7008 371.0368,-85.7008 371.0368,-85.7008 366.9366,-85.7008 362.8363,-81.6005 362.8363,-77.5003 362.8363,-77.5003 362.8363,-69.2997 362.8363,-69.2997 362.8363,-65.1995 366.9366,-61.0992 371.0368,-61.0992 371.0368,-61.0992 455.9264,-61.0992 455.9264,-61.0992 460.0266,-61.0992 464.1269,-65.1995 464.1269,-69.2997 464.1269,-69.2997 464.1269,-77.5003 464.1269,-77.5003 464.1269,-81.6005 460.0266,-85.7008 455.9264,-85.7008"/>
<text text-anchor="middle" x="413.4816" y="-69.2" font-family="Times,serif" font-size="14.00" fill="#000000">src/constants.js</text>
</g>
<!-- src/handler/controller&#45;handler.js&#45;&gt;src/constants.js -->
<g id="edge4" class="edge">
<title>src/handler/controller&#45;handler.js&#45;&gt;src/constants.js</title>
<path fill="none" stroke="#000000" d="M292.1471,-73.4C312.7625,-73.4 333.9278,-73.4 352.6911,-73.4"/>
<polygon fill="#000000" stroke="#000000" points="352.8494,-76.9001 362.8494,-73.4 352.8493,-69.9001 352.8494,-76.9001"/>
</g>
<!-- src/handler/method&#45;handler.js&#45;&gt;src/constants.js -->
<g id="edge5" class="edge">
<title>src/handler/method&#45;handler.js&#45;&gt;src/constants.js</title>
<path fill="none" stroke="#000000" d="M238.3598,-24.7443C273.3263,-34.4593 322.2002,-48.0384 359.4336,-58.3833"/>
<polygon fill="#000000" stroke="#000000" points="358.5462,-61.7693 369.1182,-61.0741 360.4201,-55.0248 358.5462,-61.7693"/>
</g>
<!-- src/enum/request&#45;method.js -->
<g id="node6" class="node">
<title>src/enum/request&#45;method.js</title>
<path fill="#e5e5e5" stroke="#000000" d="M490.9039,-24.7008C490.9039,-24.7008 336.0593,-24.7008 336.0593,-24.7008 331.959,-24.7008 327.8588,-20.6005 327.8588,-16.5003 327.8588,-16.5003 327.8588,-8.2997 327.8588,-8.2997 327.8588,-4.1995 331.959,-.0992 336.0593,-.0992 336.0593,-.0992 490.9039,-.0992 490.9039,-.0992 495.0042,-.0992 499.1044,-4.1995 499.1044,-8.2997 499.1044,-8.2997 499.1044,-16.5003 499.1044,-16.5003 499.1044,-20.6005 495.0042,-24.7008 490.9039,-24.7008"/>
<text text-anchor="middle" x="413.4816" y="-8.2" font-family="Times,serif" font-size="14.00" fill="#000000">src/enum/request&#45;method.js</text>
</g>
<!-- src/handler/method&#45;handler.js&#45;&gt;src/enum/request&#45;method.js -->
<g id="edge6" class="edge">
<title>src/handler/method&#45;handler.js&#45;&gt;src/enum/request&#45;method.js</title>
<path fill="none" stroke="#000000" d="M285.7677,-12.4C296.2752,-12.4 307.0082,-12.4 317.5672,-12.4"/>
<polygon fill="#000000" stroke="#000000" points="317.6246,-15.9001 327.6245,-12.4 317.6245,-8.9001 317.6246,-15.9001"/>
</g>
</g>
</svg>
